HIERARCHY
ROOT Hips
{
  OFFSET -2.9740628571428576 95.22824285714285 -3.405862857142857
  CHANNELS 6 Xposition Yposition Zposition Zrotation Xrotation Yrotation
  JOINT LeftUpLeg
  {
    OFFSET 8.64259 1.9539799999999998 -2.3883499999999995
    CHANNELS 3 Zrotation Xrotation Yrotation
    JOINT LeftLeg
    {
      OFFSET 43.770199999999996 0.0 0.0
      CHANNELS 3 Zrotation Xrotation Yrotation
      JOINT LeftFoot
      {
        OFFSET 40.62380000000001 0.0 0.0
        CHANNELS 3 Zrotation Xrotation Yrotation
        JOINT LeftToeBase
        {
          OFFSET 12.724199999999998 0.0 0.0
          CHANNELS 3 Zrotation Xrotation Yrotation
          End Site
          {
            OFFSET 0.0 0.0 0.0
          }
        }
      }
    }
  }
  JOINT RightUpLeg
  {
    OFFSET -8.2249 1.9539799999999998 -2.59336
    CHANNELS 3 Zrotation Xrotation Yrotation
    JOINT RightLeg
    {
      OFFSET 43.56529999999999 0.0 0.0
      CHANNELS 3 Zrotation Xrotation Yrotation
      JOINT RightFoot
      {
        OFFSET 40.62380000000001 0.0 0.0
        CHANNELS 3 Zrotation Xrotation Yrotation
        JOINT RightToeBase
        {
          OFFSET 12.724199999999998 0.0 0.0
          CHANNELS 3 Zrotation Xrotation Yrotation
          End Site
          {
            OFFSET 0.0 0.0 0.0
          }
        }
      }
    }
  }
  JOINT Spine
  {
    OFFSET 0.16583 0.8771399999999999 6.61349
    CHANNELS 3 Zrotation Xrotation Yrotation
    JOINT Spine1
    {
      OFFSET 7.389628571428571 2e-05 0.0
      CHANNELS 3 Zrotation Xrotation Yrotation
      JOINT Spine2
      {
        OFFSET 11.944500000000001 1e-05 0.0
        CHANNELS 3 Zrotation Xrotation Yrotation
        JOINT Spine3
        {
          OFFSET 14.725400000000004 4e-05 0.0
          CHANNELS 3 Zrotation Xrotation Yrotation
          JOINT Spine4
          {
            OFFSET 10.9679 0.0 0.0
            CHANNELS 3 Zrotation Xrotation Yrotation
            JOINT RightShoulder
            {
              OFFSET 2.46616 -1.6653 3.69651
              CHANNELS 3 Zrotation Xrotation Yrotation
              JOINT RightArm
              {
                OFFSET 13.001199999999999 0.0 0.0
                CHANNELS 3 Zrotation Xrotation Yrotation
                JOINT RightForeArm
                {
                  OFFSET 28.784799999999997 2e-05 0.0
                  CHANNELS 3 Zrotation Xrotation Yrotation
                  JOINT RightHand
                  {
                    OFFSET 26.568800000000003 2e-05 0.0
                    CHANNELS 3 Zrotation Xrotation Yrotation
                    JOINT RightHandMiddle1
                    {
                      OFFSET 8.03675 -0.8865800000000001 0.7278700000000001
                      CHANNELS 3 Zrotation Xrotation Yrotation
                      JOINT RightHandMiddle2
                      {
                        OFFSET 2.7883299999999993 0.0 0.0
                        CHANNELS 3 Zrotation Xrotation Yrotation
                        JOINT RightHandMiddle3
                        {
                          OFFSET 2.4115500000000005 0.0 0.0
                          CHANNELS 3 Zrotation Xrotation Yrotation
                          End Site
                          {
                            OFFSET 0.0 0.0 0.0
                          }
                        }
                      }
                    }
                    JOINT RightHandRing1
                    {
                      OFFSET 7.979660000000002 -0.8867700000000002 -1.00486
                      CHANNELS 3 Zrotation Xrotation Yrotation
                      JOINT RightHandRing2
                      {
                        OFFSET 2.8636799999999996 0.0 0.0
                        CHANNELS 3 Zrotation Xrotation Yrotation
                        JOINT RightHandRing3
                        {
                          OFFSET 2.11079 0.0 0.0
                          CHANNELS 3 Zrotation Xrotation Yrotation
                          End Site
                          {
                            OFFSET 0.0 0.0 0.0
                          }
                        }
                      }
                    }
                    JOINT RightHandPinky1
                    {
                      OFFSET 8.03707 -0.8875299999999999 -2.6069600000000004
                      CHANNELS 3 Zrotation Xrotation Yrotation
                      JOINT RightHandPinky2
                      {
                        OFFSET 1.8462757142857142 0.0 0.0
                        CHANNELS 3 Zrotation Xrotation Yrotation
                        JOINT RightHandPinky3
                        {
                          OFFSET 1.8843400000000001 0.0 0.0
                          CHANNELS 3 Zrotation Xrotation Yrotation
                          End Site
                          {
                            OFFSET 0.0 0.0 0.0
                          }
                        }
                      }
                    }
                    JOINT RightHandIndex1
                    {
                      OFFSET 7.92262 -0.8855000000000002 2.31175
                      CHANNELS 3 Zrotation Xrotation Yrotation
                      JOINT RightHandIndex2
                      {
                        OFFSET 2.63761 0.0 0.0
                        CHANNELS 3 Zrotation Xrotation Yrotation
                        JOINT RightHandIndex3
                        {
                          OFFSET 2.16656 0.0 0.0
                          CHANNELS 3 Zrotation Xrotation Yrotation
                          End Site
                          {
                            OFFSET 0.0 0.0 0.0
                          }
                        }
                      }
                    }
                    JOINT RightHandThumb1
                    {
                      OFFSET 3.4769 0.059800000000000006 2.8878899999999996
                      CHANNELS 3 Zrotation Xrotation Yrotation
                      JOINT RightHandThumb2
                      {
                        OFFSET 2.7768599999999997 0.00010000000000000002 -2e-05
                        CHANNELS 3 Zrotation Xrotation Yrotation
                        JOINT RightHandThumb3
                        {
                          OFFSET 2.420578571428571 -9e-05 0.0
                          CHANNELS 3 Zrotation Xrotation Yrotation
                          End Site
                          {
                            OFFSET 0.0 0.0 0.0
                          }
                        }
                      }
                    }
                  }
                }
              }
            }
            JOINT LeftShoulder
            {
              OFFSET 2.3803400000000003 -1.29275 -3.7523014285714282
              CHANNELS 3 Zrotation Xrotation Yrotation
              JOINT LeftArm
              {
                OFFSET 16.3182 5.9999999999999995e-05 0.0
                CHANNELS 3 Zrotation Xrotation Yrotation
                JOINT LeftForeArm
                {
                  OFFSET 27.090100000000003 0.0 0.0
                  CHANNELS 3 Zrotation Xrotation Yrotation
                  JOINT LeftHand
                  {
                    OFFSET 24.545099999999998 2e-05 0.0
                    CHANNELS 3 Zrotation Xrotation Yrotation
                    JOINT LeftHandMiddle1
                    {
                      OFFSET 9.218019999999997 0.66582 0.5455300000000002
                      CHANNELS 3 Zrotation Xrotation Yrotation
                      JOINT LeftHandMiddle2
                      {
                        OFFSET 2.66255 0.0 0.0
                        CHANNELS 3 Zrotation Xrotation Yrotation
                        JOINT LeftHandMiddle3
                        {
                          OFFSET 2.2804 0.0 0.0
                          CHANNELS 3 Zrotation Xrotation Yrotation
                          End Site
                          {
                            OFFSET 0.0 0.0 0.0
                          }
                        }
                      }
                    }
                    JOINT LeftHandRing1
                    {
                      OFFSET 9.247749999999998 0.66519 -1.1266999999999998
                      CHANNELS 3 Zrotation Xrotation Yrotation
                      JOINT LeftHandRing2
                      {
                        OFFSET 2.4704099999999998 0.0 -2e-05
                        CHANNELS 3 Zrotation Xrotation Yrotation
                        JOINT LeftHandRing3
                        {
                          OFFSET 2.2054000000000005 0.0 0.0
                          CHANNELS 3 Zrotation Xrotation Yrotation
                          End Site
                          {
                            OFFSET 0.0 0.0 0.0
                          }
                        }
                      }
                    }
                    JOINT LeftHandPinky1
                    {
                      OFFSET 9.35383857142857 0.66301 -2.7233200000000006
                      CHANNELS 3 Zrotation Xrotation Yrotation
                      JOINT LeftHandPinky2
                      {
                        OFFSET 1.63407 0.0 0.0
                        CHANNELS 3 Zrotation Xrotation Yrotation
                        JOINT LeftHandPinky3
                        {
                          OFFSET 1.71176 0.0 0.0
                          CHANNELS 3 Zrotation Xrotation Yrotation
                          End Site
                          {
                            OFFSET 0.0 0.0 0.0
                          }
                        }
                      }
                    }
                    JOINT LeftHandIndex1
                    {
                      OFFSET 8.731608571428572 0.6758999999999998 2.0680099999999997
                      CHANNELS 3 Zrotation Xrotation Yrotation
                      JOINT LeftHandIndex2
                      {
                        OFFSET 2.6668899999999995 0.0 0.0
                        CHANNELS 3 Zrotation Xrotation Yrotation
                        JOINT LeftHandIndex3
                        {
                          OFFSET 2.12946 0.0 2e-05
                          CHANNELS 3 Zrotation Xrotation Yrotation
                          End Site
                          {
                            OFFSET 0.0 0.0 0.0
                          }
                        }
                      }
                    }
                    JOINT LeftHandThumb1
                    {
                      OFFSET 4.967354285714285 -0.62265 3.3958599999999994
                      CHANNELS 3 Zrotation Xrotation Yrotation
                      JOINT LeftHandThumb2
                      {
                        OFFSET 2.15386 2e-05 0.0
                        CHANNELS 3 Zrotation Xrotation Yrotation
                        JOINT LeftHandThumb3
                        {
                          OFFSET 2.1951099999999997 -2.9999999999999997e-05 2e-05
                          CHANNELS 3 Zrotation Xrotation Yrotation
                          End Site
                          {
                            OFFSET 0.0 0.0 0.0
                          }
                        }
                      }
                    }
                  }
                }
              }
            }
            JOINT Neck
            {
              OFFSET 5.0226 -0.026629999999999994 0.0
              CHANNELS 3 Zrotation Xrotation Yrotation
              JOINT Head
              {
                OFFSET 6.693637142857143 2.9999999999999997e-05 0.0
                CHANNELS 3 Zrotation Xrotation Yrotation
                End Site
                {
                  OFFSET 0.0 0.0 0.0
                }
              }
            }
          }
        }
      }
    }
  }
}
MOTION
Frames: 4
Frame Time: 0.03333333
132.36091436328684 87.6191460860265 -80.68950025221342 69.04453601309923 38.515365195102845 64.33814522332621 55.71729209338157 27.71621492612142 77.8337847474425 -63.560075045310214 -18.66229495751879 5.337983467356152 54.229685943433665 -3.6088775206584605 1.1001016044786933 28.780800000000124 5.310882890506999e-06 1.0792464191810152e-05 51.052675857832064 41.570597301071274 97.84558706007881 -31.467494164882766 34.74808614213782 5.484081547383629 56.924601895333055 0.9538789237308798 0.5494711470878224 28.780797612167593 1.3070489884859209e-05 1.8406631356140948e-05 -5.120687775549817 7.014512419222843 -91.12417664425718 12.495568398690253 -8.440711051757617 -6.077911277758395 0.8266252427331842 -8.744522751096012 -5.878317277837276 -21.792005233697875 -6.16037748360954 -8.326191748669283 -1.881301339435025 -6.055409611850203 -8.519143544691415 113.96813816070846 -49.82412476006064 -55.93434265736652 24.295931917393357 33.83326094748514 -24.879581910242 21.422976257715682 -1.342441721352183 -43.351664166231416 9.145168911595885 3.681393185916903 -12.923180485873061 -89.40395669925091 88.97090000000138 89.09366799313754 -0.060489004253511114 2.971358225707557e-06 3.5951278333160807e-06 -0.06392026273316154 -2.445721891257012e-06 -6.020895191605037e-07 -89.3944158606949 88.98107085314525 89.0841475963473 -1.1574194027169584 1.0544557363333749e-05 -2.0432522785119312e-07 2.575999849910587 -1.844197279074954e-05 4.864928254667253e-07 -88.85682743971769 89.35790000000264 88.54666066815666 -1.1457797744307336 -3.4396134043240185e-06 2.2333555682131878e-05 1.1457699236640473 6.24001386289959e-06 1.0073668608618005e-07 -89.42253769526673 88.94869999999678 89.1122489367501 0.4092878728952045 7.74325627348627e-06 0.00047510632661682754 -0.6366005214396243 -8.396070028329273e-06 1.5922778844787857e-07 104.36399976923225 40.50230174604448 -88.82460102159898 -7.669024065804456 0.1861688870262624 -1.3504446557336576 -11.263400000000514 -4.759668137585868e-06 7.006869566468076e-05 -93.58572832261703 -15.968371974086175 41.167218322139284 11.016770835570945 -34.92270553327377 -48.31183116046394 5.074350723832737 14.814690749030113 -81.26904024303195 1.738670374038688 -11.86686814260786 -72.33213692254732 -91.18721899459207 -87.82890000000152 -89.99871939599241 3.4088799198627204 3.3352495769186234e-06 0.003458074450309176 -0.9548618170968834 7.740973290205718e-07 6.64831108705138e-07 -91.18630253841773 -89.40149999999778 -89.99778744009619 2.8563674105076977 -2.146502052582347e-06 0.0027919592317138518 -3.168439808779146 -3.6007680711669716e-06 1.1294602515332427e-06 88.80807482264159 -89.71708082830894 89.99660581154016 2.544809708584057 4.541084532925276e-06 0.0025144479405258594 -2.5448198664873103 -7.91439322889756e-06 -6.040577583898461e-07 -91.18829944320564 -86.19730000000223 -89.9997994336487 6.1310404670184395 4.3405178610224706e-07 0.006657067640230317 -2.0454185453290603 4.785324103567953e-07 2.498583517588967e-06 -101.94900000000051 -40.72420000000113 -90.06940000000294 10.017200000000047 8.964851210123755e-06 7.583218465340588e-07 -2.669760150806445 5.327433878144848e-07 3.6692588726053715e-06 38.5674949502356 10.392296430466306 18.36565600661777 -41.49162333067625 2.350951526421518 4.300768367622491
130.85743406782467 87.81104846279143 -96.06291904434003 67.5844134319288 33.719627285837454 62.82047575311351 27.58170150132854 28.48654063975895 77.60295210383283 -65.18837338593143 -14.773293533050888 6.06996404338844 50.67103250994021 -4.0829333016994545 0.06207814755630989 28.780800000000117 5.277650974500097e-06 1.0886136558875614e-05 44.639345486875186 42.33979667847815 95.15795349236186 -30.93873668877813 35.634571422703665 5.273366841740813 55.876712729492056 -0.13495143801975074 -0.03595015711075078 28.780797729144172 1.3096334703832065e-05 1.8500507970805985e-05 -5.26626278590447 6.917062390735599 -90.87731828685081 12.68792675975236 -8.482351979673512 -6.325265724239261 1.0118469874534337 -8.792025210808717 -6.1197047304010725 -21.60312457061891 -6.118593044090038 -8.561173098981014 -1.6914169298389083 -6.020253095090229 -8.757764352470346 113.00001832923526 -48.07264528579407 -57.58855367360974 26.732165544868366 31.360718782454015 -22.699020554365802 19.3533267982928 -2.288462416965567 -41.44989803226828 11.091514105748095 3.869996253263298 -6.876135516635632 -89.40395548034141 88.97090000000128 89.09366657630295 -0.06048898128244321 2.891341451476463e-06 3.5763012882142286e-06 -0.06392026888176534 -2.2848682537402266e-06 -5.969578568606536e-07 -89.39441662958126 88.98107040460042 89.08414801943465 -1.1574194529781305 1.0538257490029933e-05 -2.1860739006944413e-07 2.5759998226954113 -1.83210287476592e-05 4.58375597680919e-07 -88.85681343707267 89.35790000000245 88.54664779320044 -1.1457797837783525 -3.3606406146684134e-06 2.078392399188725e-05 1.1457699487971658 6.132127865829034e-06 1.0948524013857642e-07 -89.42252953797079 88.948699999997 89.11224204866548 0.40928784776723476 7.823510846523834e-06 0.0004752355183462783 -0.636600529630887 -8.500532853196215e-06 1.5732720434073543e-07 104.36399977007189 40.50230179988321 -88.8246009144603 -7.6690240589714165 0.18616880292086826 -1.3504446802851666 -11.26340000000048 -4.6232485398247035e-06 6.991130858441783e-05 -93.47190580483283 -17.280087854604957 39.665962339959584 8.427944252903984 -32.349253782902004 -44.869253902556856 6.440273891728751 11.388857100729458 -77.6487148504503 5.7334892049138 -12.396310340821014 -69.49601764779875 -91.187213530574 -87.82890000000143 -89.99871390693032 3.4088799300232333 3.073258111217745e-06 0.003458823491412795 -0.954861724035739 8.606720015257606e-07 3.744354753655597e-07 -91.18629919033246 -89.40149999999795 -89.99778467680726 2.8563676794808557 -2.0797251581421446e-06 0.0027882413669826963 -3.168439781428827 -3.7263262485718274e-06 1.101524343133267e-06 88.80807089551512 -89.71708009133826 89.99660305589383 2.5448097865642523 4.406378047211254e-06 0.002505125496256205 -2.5448198627928016 -7.649193798183328e-06 -5.809599140273324e-07 -91.18829710832034 -86.19730000000207 -89.99979691121054 6.131040476998465 4.4338925349705306e-07 0.006653985737271921 -2.0454186460845714 5.434026131839319e-07 2.2876303135838336e-06 -101.94900000000047 -40.724200000001055 -90.06940000000273 10.017200000000043 8.982097573172352e-06 6.066089000004752e-07 -2.669760175754622 6.046456467147013e-07 3.6992110535715866e-06 37.35797736611656 9.53042931397096 16.73200365375461 -41.28839487782929 1.5916554004114016 3.0432813799436462
129.59015352209389 88.22925342849238 -107.91599189930037 64.5647129885069 28.976199539751775 61.72758955425076 -8.109699331981972 28.328291588251748 77.0622778673073 -65.84125616779907 -12.087167851413403 5.77218967457591 47.816290376735324 -4.430420091118024 -1.2385372951293738 28.780800000000088 5.20192242096929e-06 1.0884573984544755e-05 37.938092471323216 42.734809624496606 92.88773083739287 -31.11099426113536 35.37728401158117 5.084944455077144 54.9314019125666 -0.7990714009737929 -0.35440679920876983 28.780797795720048 1.3123694262784587e-05 1.889985629133417e-05 -5.41375014184592 6.859940239884843 -90.77137018835589 12.796445425058657 -8.631978150399009 -6.61632513436377 1.1111389609611757 -8.934818236956055 -6.3933746003639795 -21.499699691086473 -6.171163055744167 -8.863632447461045 -1.5977348033700056 -6.088274758305289 -9.060530417904122 112.15596691269077 -46.74204516167169 -58.85527954432128 26.97576926489797 29.23122432947426 -21.538247251432722 18.26923507911044 -2.3360811132613377 -40.71062708177476 14.383985460306072 4.400194463409777 -1.9117102908355472 -89.40395656743874 88.97090000000095 89.09366730557996 -0.06048894106105182 2.8036212189466383e-06 3.475981664453916e-06 -0.06392030993486511 -1.8991279052486089e-06 -5.906244545864275e-07 -89.39442592863168 88.98107065096484 89.08415898243996 -1.1574194795840762 1.0388176916401372e-05 -2.3413036245139819e-07 2.5759998069177303 -1.8031695964905946e-05 4.3842200199506443e-07 -88.85680408383075 89.35790000000182 88.54664086888047 -1.1457798078269366 -3.2169149866551783e-06 2.205467866252157e-05 1.1457699862677317 5.965814222098811e-06 1.0510875094182172e-07 -89.42252513403787 88.94869999999774 89.1122388949153 0.40928781140760306 7.739216861892708e-06 0.00047900241832378356 -0.636600522346067 -8.328770926399035e-06 1.2851521044803805e-07 104.36399977877784 40.502301752904444 -88.82460082458124 -7.669024091584541 0.186168644918275 -1.3504446286057727 -11.263400000000367 -4.286771440670978e-06 6.972194227005666e-05 -93.3918987121265 -18.46324681377726 38.16966042258497 6.671311408649235 -29.103749866040715 -43.410952250678335 6.785490808411043 8.84043890411404 -74.98156838877486 8.404877394014811 -12.996524799579964 -68.33403024154836 -91.18720861496188 -87.82890000000107 -89.99870896476315 3.408879940034171 2.8014585559628807e-06 0.0034625649940860995 -0.9548616748996792 8.426396355440807e-07 2.2948537916454673e-07 -91.18630786263778 -89.40149999999846 -89.99779120267273 2.856367822532671 -2.0890334145003764e-06 0.0027869593647906624 -3.168439775523451 -3.6857860131828197e-06 1.051227962860438e-06 88.80806695658177 -89.71707834566504 89.99659871568396 2.544809855872087 4.3305833026383286e-06 0.0025024223267826533 -2.5448198519619436 -7.479498787926622e-06 -5.30524736412082e-07 -91.18829510654513 -86.19730000000155 -89.99979467119466 6.131040423016983 4.75418604346059e-07 0.006653003838818661 -2.045418718470658 6.069207903304217e-07 1.9722202900438137e-06 -101.94900000000035 -40.7242000000008 -90.06940000000203 10.017200000000035 8.730247746272722e-06 4.784783248261913e-07 -2.6697602273632284 7.220049760189937e-07 3.5519334525684494e-06 35.42429198085165 8.837668430503683 13.579530974906458 -41.97318349766265 0.8025831942397819 3.0913575579114703
127.59339152778894 88.88107144421315 -119.06265167346751 59.3558905562338 23.800515975484245 61.030732886026065 -56.30299162342733 27.036045969023807 77.29151127408831 -65.53557227752864 -9.848008974906598 5.075928212903203 47.0467993582377 -5.309332170888917 -2.9804590362809282 28.78080000000007 5.0911001593166e-06 1.1066446615981216e-05 28.948817832258058 43.59686759879982 90.17447799261232 -32.01234704095681 34.627141341642954 4.313339165011866 54.18023600894055 -0.8140232420886373 -0.3058415808504962 28.780797774485023 1.315574882458574e-05 1.9785082371448666e-05 -5.572799530452999 6.845789602042376 -90.68049915337576 12.802208580762352 -8.856561430758703 -6.840522704662794 1.0843372762153292 -9.137612728673833 -6.574514631161852 -21.485788540470278 -6.345119876547682 -9.116541636444017 -1.6041067491510235 -6.292530886614541 -9.320775910147857 111.76857317843081 -46.60117219044781 -59.667596348463555 25.634603991842297 27.22695371610692 -21.006388063921747 17.200070826166275 -2.5971604240773396 -40.62892707148057 18.138224525673795 5.3558540727412876 2.3598791995093427 -89.4039574818946 88.97090000000075 89.09366535726791 -0.06048877882647602 2.39477388359204e-06 2.527402301209672e-06 -0.06392051669472298 -1.194289790304472e-06 -6.339652637963074e-07 -89.39446825637296 88.98107168597512 89.08420911215524 -1.1574193247537026 9.677576768076052e-06 -2.5946509632358033e-07 2.575999772362192 -1.7657215808852878e-05 4.103916171883255e-07 -88.85678607527201 89.35790000000145 88.54662730865527 -1.1457798002514001 -2.7969032007231942e-06 3.184132463626389e-05 1.14577005300552 5.880235945539593e-06 8.585794070605625e-08 -89.42251606096154 88.9486999999982 89.11223227301771 0.40928761667439867 7.543917821338759e-06 0.0004926085570311927 -0.6366004900743828 -7.712581075228133e-06 9.738004420960958e-08 104.36399980068865 40.50230139981661 -88.82460077861182 -7.669024527772144 0.18616900237192766 -1.3504442382465247 -11.263400000000289 -3.451388845740006e-06 6.936939030208387e-05 -93.14922284418361 -18.897233491719472 38.56483755346145 4.514329233514289 -25.09814180975465 -43.817935783936605 5.8833575319393026 6.387412965849174 -73.74799647897936 8.085910717368277 -13.215487539376928 -68.1331403455292 -91.18720236689124 -87.82890000000083 -89.9987026690854 3.408879954352291 3.045241149285809e-06 0.003473170550315915 -0.9548618057147615 9.509998429835517e-08 4.1411119978587966e-07 -91.18634398237836 -89.40149999999879 -89.99781996384488 2.856367624298229 -2.3765369638538693e-06 0.002782399275446345 -3.168439808087548 -3.4647341974609506e-06 9.659226457236495e-07 88.80809068857255 -89.71707638631196 89.99661918770659 2.5448099968513636 4.283975486914268e-06 0.0025084058691546268 -2.5448198276867755 -7.436017744426047e-06 -4.1154988530210686e-07 -91.1882954732414 -86.1973000000012 -89.99979547812514 6.131040327610198 7.435461027786608e-07 0.0066407680712762115 -2.0454191267972965 8.533645032928816e-07 2.2572377581868645e-06 -101.94900000000027 -40.724200000000636 -90.0694000000016 10.017200000000027 8.668699098836886e-06 4.0623426103228646e-07 -2.6697601997297293 9.133679318453417e-07 3.0456453798352766e-06 33.880692223960615 8.592194869348893 9.089987623657118 -43.50200152600574 0.20977574296723234 4.785633240915803
